# xmcd
#
# Track frame offsets: 
#        150
#        11149
#        22508
#        33136
#        42586
#        57208
#        68118
#        81473
#        91257
#        102446
#        113769
#        126216
#        136435
#        151072
#        164285
#        174383
#        185458
#        194273
#        204308
#        214230
#        224322
#        238310
#        251410
#        259397
#        270429
#        279177
#        291828
#        302768
#        310728
#        321716
#        335827
#        351999
#        364213
#
# Disc length: 5001 seconds
#
# Revision: 0
# Processed by: cddbd v1.5.2PL0 Copyright (c) Steve Scherf et al.
# Submitted via: ExactAudioCopy v1.3
#
DISCID=f4138721
DTITLE=Marty Robbins - The Complete Recordings 1952-1960_CD2
DYEAR=2017
DGENRE=Country
TTITLE0=I Can't Quit
TTITLE1=The Story Of My Life
TTITLE2=Once-A-Week Date
TTITLE3=Long Tall Sally
TTITLE4=Tennessee Toddy
TTITLE5=Maybelline
TTITLE6=Respectfully Miss Brooks
TTITLE7=Mean Mama Blues
TTITLE8=Long Gone Lonesome Blues
TTITLE9=Lovesick Blues
TTITLE10=I'm So Lonesome I Could Cry
TTITLE11=I'ts Too Late Now
TTITLE12=Rose Of Ol' Pawnee
TTITLE13=I Never Let You Cross My Mind
TTITLE14=I Hang My Head And Cry
TTITLE15=You Only Want Me When You're Lonely
TTITLE16=Moanin' The Blues
TTITLE17=I'll Step Aside
TTITLE18=All The World Is Lonely Now
TTITLE19=Bouquet Of Roses
TTITLE20=Have I Told You Lately That I Love You?
TTITLE21=Song Of The Islands
TTITLE22=Don't Sing Aloha When I Go
TTITLE23=Beyond The Reef
TTITLE24=Crying Steel Guitar Waltz
TTITLE25=My Isle Of Golden Dreams
TTITLE26=Now Is The Hour
TTITLE27=Sweet Leilani
TTITLE28=Down Where The Tradewinds Blow
TTITLE29=Constancy
TTITLE30=Island Echoes
TTITLE31=Moonland
TTITLE32=Aloha Oe
EXTD=
EXTT0=
EXTT1=
EXTT2=
EXTT3=
EXTT4=
EXTT5=
EXTT6=
EXTT7=
EXTT8=
EXTT9=
EXTT10=
EXTT11=
EXTT12=
EXTT13=
EXTT14=
EXTT15=
EXTT16=
EXTT17=
EXTT18=
EXTT19=
EXTT20=
EXTT21=
EXTT22=
EXTT23=
EXTT24=
EXTT25=
EXTT26=
EXTT27=
EXTT28=
EXTT29=
EXTT30=
EXTT31=
EXTT32=
PLAYORDER=
